<svg width="132" height="100" viewBox="0 0 132 100" fill="none" xmlns="http://www.w3.org/2000/svg">
<rect x="30" width="100" height="100" rx="7" fill="#00FFE0"/>
<path d="M51.3164 96V36.67H90.6714V47.125H64.0664V60.725H87.8664V71.18H64.0664V96H51.3164ZM87.5782 36.67H108.403C114.24 36.67 118.688 38.0867 121.748 40.92C124.865 43.7533 126.423 47.6067 126.423 52.48C126.423 55.88 125.573 58.6 123.873 60.64C122.23 62.6233 119.85 64.0683 116.733 64.975V65.485C120.417 66.3917 123.25 67.9783 125.233 70.245C127.273 72.5117 128.293 75.6567 128.293 79.68C128.293 84.6667 126.707 88.6333 123.533 91.58C120.417 94.5267 116.025 96 110.358 96H87.5782V36.67ZM106.448 87.075C109.508 87.075 111.747 86.565 113.163 85.545C114.58 84.525 115.288 82.655 115.288 79.935V77.47C115.288 74.75 114.58 72.88 113.163 71.86C111.747 70.84 109.508 70.33 106.448 70.33H99.9882V87.075H106.448ZM104.833 61.83C107.837 61.83 110.018 61.3483 111.378 60.385C112.738 59.365 113.418 57.5517 113.418 54.945V52.395C113.418 49.7883 112.738 48.0033 111.378 47.04C110.018 46.0767 107.837 45.595 104.833 45.595H99.9882V61.83H104.833Z" fill="#1E1E1E"/>
</svg>
